<svg width="40" height="40" viewBox="0 0 40 40" fill="none" xmlns="http://www.w3.org/2000/svg">
<path d="M21.9408 0C12.4972 0 4.84083 7.65507 4.84083 17.0986C4.84083 20.454 5.80703 23.584 7.47693 26.2249C7.46466 26.2303 7.45263 26.2351 7.44033 26.2406L0 33.6797L6.32033 40L14.0286 32.2904C14.0263 32.2795 14.0232 32.2687 14.0208 32.2578C16.3887 33.4974 19.083 34.1986 21.9408 34.1986C31.3844 34.1986 39.0394 26.5422 39.0394 17.0987C39.0393 7.65507 31.3843 0 21.9408 0ZM21.9408 7.5959C27.1888 7.5959 31.4421 11.8505 31.4421 17.0986C31.4421 22.3467 27.1888 26.6013 21.9408 26.6013C16.6927 26.6013 12.4381 22.3467 12.4381 17.0986C12.4381 11.8505 16.6927 7.5959 21.9408 7.5959Z" fill="#000827"/>
</svg>
